<svg xmlns="http://www.w3.org/2000/svg" width="192" height="192" viewBox="0 0 192 192">
  <rect width="192" height="192" fill="#0891b2" rx="24"/>
  <path fill="#fff" d="M96 40c-30.928 0-56 25.072-56 56s25.072 56 56 56 56-25.072 56-56-25.072-56-56-56zm0 96c-22.056 0-40-17.944-40-40s17.944-40 40-40 40 17.944 40 40-17.944 40-40 40z"/>
  <path fill="#fff" d="M96 64c-17.673 0-32 14.327-32 32h16c0-8.837 7.163-16 16-16s16 7.163 16 16h16c0-17.673-14.327-32-32-32z"/>
  <circle fill="#fff" cx="96" cy="112" r="8"/>
</svg>
